<svg width="256" height="256" viewBox="0 0 256 256" fill="none" xmlns="http://www.w3.org/2000/svg">
<rect width="256" height="256" rx="38" fill="#232323"/>
<path d="M55.7976 121.223C52.7593 115.6 53.6034 111.021 58.098 109.073C66.86 105.276 75.9687 103.94 85.0807 102.792C90.0981 102.16 95.1281 101.71 100.149 100.995C87.6063 99.7947 75.2209 97.3725 62.9526 93.7282C55.9335 91.6431 54.1517 88.9054 54.1467 79.1675C54.1458 77.4153 54.0847 75.6571 54.1681 73.9119C54.4004 69.0499 57.0063 65.4645 60.5612 65.056C61.3106 64.9699 62.0685 65.0087 62.8224 65.0087C106.672 65.006 150.522 65.0055 194.371 65.0043C201.47 65.0041 203.848 68.2094 203.888 77.8377C203.934 88.8807 202.542 91.2856 194.602 93.7426C181.909 97.6705 169.048 99.9669 156.043 100.994C166.658 101.998 177.266 103.018 187.776 105.357C191.816 106.256 195.789 107.499 199.726 109.014C202.3 110.005 203.856 111.881 203.842 115.773C203.828 119.619 202.34 121.503 199.752 122.576C191.576 125.964 183.144 127.419 174.704 128.648C154.219 131.633 133.644 131.83 113.084 131.202C96.203 130.686 79.3498 129.16 62.7691 124.315C60.451 123.637 58.1574 122.851 55.7976 121.223Z" fill="white"/>
<path d="M199.205 141.707C200.435 145.011 198.401 145.82 196.769 146.63C191.135 149.426 185.117 150.37 179.133 151.212C159.392 153.989 139.558 154.875 119.699 154.356C102.342 153.902 84.9887 153.044 67.8899 148.973C65.7871 148.473 63.7237 147.66 61.6982 146.804C60.1902 146.166 58.3226 145.427 58.3383 143.173C58.354 140.899 60.3186 140.27 61.7726 139.608C66.6359 137.394 71.7547 136.335 76.8834 135.521C101.357 131.638 125.969 131.767 150.563 132.58C164.231 133.031 177.922 134.087 191.336 137.744C194.059 138.486 196.836 139.175 199.205 141.707Z" fill="white"/>
<path d="M148.896 157.997C160.271 158.935 171.387 159.22 182.33 161.673C184.233 162.1 186.129 162.614 187.989 163.248C189.305 163.697 191.044 164.082 191.103 166.059C191.163 168.09 189.418 168.506 188.116 169.005C183.476 170.785 178.649 171.476 173.838 172.126C152.566 175.002 131.201 174.97 109.858 174.234C97.2854 173.801 84.6465 173.191 72.3031 169.732C70.3048 169.171 67.1475 169.162 67.0932 166.244C67.0385 163.301 70.2147 163.191 72.1706 162.597C80.7762 159.983 89.6334 159.462 98.4384 158.715C115.136 157.299 131.865 157.714 148.896 157.997Z" fill="white"/>
<path d="M120.496 192.161C107.67 191.093 94.9367 192.157 82.6286 187.32C83.4168 184.505 84.9463 184.43 86.2401 184.049C94.1444 181.719 102.266 181.296 110.317 181.088C126.277 180.676 142.259 180.299 158.204 181.781C162.815 182.209 167.443 182.707 171.963 184.022C173.202 184.383 174.521 184.612 175.351 186.214C174.637 188.591 172.687 188.544 171.136 188.969C165.658 190.472 160.05 190.931 154.462 191.3C143.259 192.04 132.044 192.461 120.496 192.161Z" fill="white"/>
<path d="M142.257 201.312C145.479 202.191 148.8 201.162 151.532 203.81C146.27 208.142 111.798 208.148 105.853 203.297C118.294 199.812 130.158 201.098 142.257 201.312Z" fill="white"/>
</svg>
